<svg xmlns="http://www.w3.org/2000/svg" viewBox="0 0 32 32" width="32" height="32">
  <defs>
    <linearGradient id="pinGrad" x1="0%" y1="0%" x2="100%" y2="100%">
      <stop offset="0%" style="stop-color:#34d399"/>
      <stop offset="100%" style="stop-color:#2dd4bf"/>
    </linearGradient>
  </defs>
  <!-- Map Pin Body -->
  <path d="M16 3 C10 3, 6 7, 6 12 C6 19, 16 28, 16 28 C16 28, 26 19, 26 12 C26 7, 22 3, 16 3 Z" fill="url(#pinGrad)"/>
  <!-- Inner Circle -->
  <circle cx="16" cy="12" r="5" fill="white" fill-opacity="0.15"/>
  <!-- Sync Arrow Top -->
  <path d="M12 10 C12 8, 16 7, 18 8 C20 9, 20 12, 19 14" stroke="white" stroke-width="1" fill="none" stroke-linecap="round"/>
  <!-- Sync Arrow Top Head -->
  <polyline points="17,12 19,14 21,12" stroke="white" stroke-width="1" fill="none" stroke-linecap="round" stroke-linejoin="round"/>
  <!-- Sync Arrow Bottom -->
  <path d="M20 14 C20 16, 16 17, 14 16 C12 15, 12 12, 13 10" stroke="white" stroke-width="1" fill="none" stroke-linecap="round"/>
  <!-- Sync Arrow Bottom Head -->
  <polyline points="15,13 13,10 11,13" stroke="white" stroke-width="1" fill="none" stroke-linecap="round" stroke-linejoin="round"/>
</svg>
