<svg xmlns="http://www.w3.org/2000/svg" viewBox="0 0 200 40" width="200" height="40">
  <defs>
    <linearGradient id="pinGradH" x1="0%" y1="0%" x2="100%" y2="100%">
      <stop offset="0%" style="stop-color:#3b82f6"/>
      <stop offset="100%" style="stop-color:#8b5cf6"/>
    </linearGradient>
  </defs>
  <!-- Map Pin Body -->
  <path d="M20 4 C10 4, 4 11, 4 19 C4 30, 20 36, 20 36 C20 36, 36 30, 36 19 C36 11, 30 4, 20 4 Z" fill="url(#pinGradH)"/>
  <!-- Inner Circle -->
  <circle cx="20" cy="17" r="7" fill="white" fill-opacity="0.15"/>
  <!-- Sync Arrow Top -->
  <path d="M15 15 C15 12, 20 10, 24 12 C26 14, 26 17, 25 19" stroke="white" stroke-width="1.5" fill="none" stroke-linecap="round"/>
  <!-- Sync Arrow Top Head -->
  <polyline points="23,17 25,19 27,17" stroke="white" stroke-width="1.5" fill="none" stroke-linecap="round" stroke-linejoin="round"/>
  <!-- Sync Arrow Bottom -->
  <path d="M25 19 C25 22, 20 24, 16 22 C14 20, 14 17, 16 15" stroke="white" stroke-width="1.5" fill="none" stroke-linecap="round"/>
  <!-- Sync Arrow Bottom Head -->
  <polyline points="19,18 16,15 14,18" stroke="white" stroke-width="1.5" fill="none" stroke-linecap="round" stroke-linejoin="round"/>
  <!-- Text -->
  <text x="44" y="26" font-family="system-ui, -apple-system, sans-serif" font-size="22" font-weight="700" fill="#f1f5f9">Field<tspan fill="#3b82f6">Sync</tspan></text>
</svg>
